<?xml version="1.0" encoding="UTF-8"?>
<svg width="1200pt" height="1200pt" version="1.1" viewBox="0 0 1200 1200" xmlns="http://www.w3.org/2000/svg">
 <g>
  <path d="m458.61 657.82c-4.8008 0-9.6133-0.96094-12.492-4.8008-4.8008-3.8164-6.707-9.5898-6.707-16.309 2.8555-19.199 34.547-41.293 56.629-49.945 4.8008-1.8945 9.6133-3.8164 15.371-6.707 14.387-28.801 27.816-63.371 35.508-86.398-12.469-29.746-14.387-58.559-9.6133-73.906 4.8008-12.492 13.453-15.371 18.254-16.332 9.5898-0.96094 15.348 2.8789 18.238 6.7305 2.8906 3.8516 12.469 15.348-1.9219 61.441 0 0-2.8789 8.6523-7.6914 22.078 7.6914 17.281 19.223 35.52 34.57 50.867 3.8398 3.8398 6.7305 6.7305 9.6133 9.6133 11.508-1.9219 22.078-2.8789 32.629-2.8789 24.961 0 39.371 3.8398 47.039 11.508 3.8398 3.8398 5.7617 9.6133 4.8008 15.371-0.96094 7.668-5.7617 13.43-14.387 17.27-15.371 5.7617-42.254 0.96094-74.879-24.961-28.801 4.8008-58.57 14.41-81.613 23.039-9.5898 18.238-19.199 34.559-29.762 44.172-9.5859 13.453-23.039 20.148-33.586 20.148zm41.266-54.719c-23.039 10.559-43.199 28.801-44.16 36.492l0.96094 0.96094c2.8789 2.8789 14.387-0.96094 25.922-13.43 5.7695-5.7734 11.52-14.414 17.277-24.023zm127.69-35.535c22.078 14.41 38.387 15.371 46.078 12.492 2.8789-0.96094 3.8398-2.8789 4.8008-2.8789 0-1.9219 0-2.8789-0.96094-2.8789-1.9219-2.8789-9.6133-6.7305-35.531-6.7305h-1.9219c-3.8359-0.003906-7.6641-0.003906-12.465-0.003906zm-70.078-52.797c-6.7305 17.293-15.371 38.41-24 58.57 17.27-5.7617 37.43-11.531 56.629-15.348l-1.9219-1.9219c-12.469-12.504-23.039-26.891-30.707-41.301zm1.918-95.02h-0.96094c-1.9219 0-3.8398 1.9219-4.8008 5.7461-3.8398 9.6133-2.8789 25.922 2.8789 44.172 0.96094-1.9336 0.96094-2.8906 0.96094-2.8906 9.5898-29.746 7.668-43.176 4.7773-46.055 0.003907-0.011719-0.95703-0.97266-2.8555-0.97266z"/>
  <path d="m278.11 963.12v-176.65h609.61v78h24l-0.003906-504.25-206.42-207.35h-451.2v834.25h553.31l-18.59-24zm432.96-769.95 159.37 160.31h-159.37zm-432.96-16.309h409.92v199.67h199.69l-0.003906 393.62h-609.61z"/>
  <path d="m852.94 987.12 46.473 60.023 46.477-60.047h-34.164v0.023438z"/>
  <path d="m887.16 900.47h0.5625v62.652h-0.5625z"/>
  <path d="m887.16 963.12v23.977h-34.25l0.027344 0.023438h58.785v-0.023438h-0.070312v-86.629h-23.93v62.652z"/>
  <path d="m496.8 826.78h-41.113v91.379h12.348v-38.555h28.766c19.871 0 27.121-14.387 27.121-27.121 0-14.75-10.164-25.703-27.121-25.703zm-4.1875 42.262h-24.562v-31.715h25.078c10.176 0 18.07 3.707 18.07 15.277 0 12.359-7.5 16.438-18.586 16.438z"/>
  <path d="m577.05 826.78h-37.031v91.379h36.516c30.047 0 38.953-26.484 38.953-46.969 0-26.34-14.652-44.41-38.438-44.41zm-0.77734 80.844h-23.93v-70.285h23.039c16.801 0 27.371 11.605 27.371 34.645 0.003907 23.039-10.426 35.641-26.48 35.641z"/>
  <path d="m644.95 918.17h-12.348v-91.391h63.25v10.953h-50.902v28.008h44.793v10.945h-44.793z"/>
 </g>
</svg>
